
<svg xmlns="http://www.w3.org/2000/svg" style="display: none;">
  <symbol id="bubble-gum-icon" viewBox="0 0 512 512">
    <path d="M256 80c-97.2 0-176 78.8-176 176s78.8 176 176 176 176-78.8 176-176S353.2 80 256 80zm0 32c79.5 0 144 64.5 144 144s-64.5 144-144 144-144-64.5-144-144 64.5-144 144-144z" fill="#FF88BB"/>
    <circle cx="256" cy="256" r="120" fill="#FF88BB" opacity="0.7"/>
    <path d="M350 220c-8.3-8.3-21.8-8.3-30.2 0-8.3 8.3-8.3 21.8 0 30.2 8.3 8.3 21.8 8.3 30.2 0 8.3-8.4 8.3-21.9 0-30.2z" fill="white" opacity="0.8"/>
    <path d="M180 280c-5-5-13.1-5-18.1 0-5 5-5 13.1 0 18.1 5 5 13.1 5 18.1 0 5-5 5-13.1 0-18.1z" fill="white" opacity="0.6"/>
  </symbol>
</svg>
